<svg width="24" height="26" viewBox="0 0 24 26" fill="none" xmlns="http://www.w3.org/2000/svg">
<g filter="url(#arrow-right-filter0_dd_1618_54)">
<path fill-rule="evenodd" clip-rule="evenodd" d="M9.32678 6.34991C8.8849 6.81 8.89206 7.54866 9.34277 7.99974L14.3388 13L9.34277 18.0003C8.89206 18.4513 8.8849 19.19 9.32678 19.6501C9.76866 20.1102 10.4922 20.1175 10.9429 19.6664L16.583 14.0216C16.7225 13.8816 16.8271 13.717 16.8964 13.5426C16.9657 13.3683 17 13.1838 17 13C17 12.8162 16.9657 12.6317 16.8964 12.4574C16.8271 12.283 16.7225 12.1184 16.583 11.9784L10.9429 6.33359C10.4922 5.88251 9.76866 5.88981 9.32678 6.34991Z" fill="url(#arrow-right-paint0_linear_1618_54)"/>
<path d="M14.4449 12.894C14.5035 12.9525 14.5035 13.0475 14.4449 13.106L9.44888 18.1063C9.05591 18.4996 9.0496 19.1449 9.43497 19.5462C9.81867 19.9457 10.4456 19.952 10.8368 19.5604L16.4767 13.9157C16.4768 13.9157 16.4768 13.9157 16.4768 13.9157C16.6012 13.7908 16.6949 13.6436 16.757 13.4872C16.8192 13.3309 16.85 13.1652 16.85 13C16.85 12.8348 16.8192 12.6691 16.757 12.5128C16.6949 12.3564 16.6012 12.2092 16.4768 12.0843C16.4767 12.0843 16.4767 12.0843 16.4767 12.0842L10.8368 6.43961C10.4456 6.04803 9.81867 6.05429 9.43497 6.45381C9.0496 6.85506 9.05591 7.50043 9.44888 7.89372L14.4449 12.894Z" stroke="url(#arrow-right-paint1_radial_1618_54)" stroke-opacity="0.5" stroke-width="0.3" stroke-linecap="round" stroke-linejoin="round"/>
</g>
<defs>
<filter id="arrow-right-filter0_dd_1618_54" x="3" y="0" width="20" height="26" filterUnits="userSpaceOnUse" color-interpolation-filters="sRGB">
<feFlood flood-opacity="0" result="BackgroundImageFix"/>
<feColorMatrix in="SourceAlpha" type="matrix" values="0 0 0 0 0 0 0 0 0 0 0 0 0 0 0 0 0 0 127 0" result="hardAlpha"/>
<feOffset/>
<feGaussianBlur stdDeviation="3"/>
<feComposite in2="hardAlpha" operator="out"/>
<feColorMatrix type="matrix" values="0 0 0 0 1 0 0 0 0 1 0 0 0 0 1 0 0 0 1 0"/>
<feBlend mode="normal" in2="BackgroundImageFix" result="effect1_dropShadow_1618_54"/>
<feColorMatrix in="SourceAlpha" type="matrix" values="0 0 0 0 0 0 0 0 0 0 0 0 0 0 0 0 0 0 127 0" result="hardAlpha"/>
<feOffset/>
<feGaussianBlur stdDeviation="1"/>
<feComposite in2="hardAlpha" operator="out"/>
<feColorMatrix type="matrix" values="0 0 0 0 0 0 0 0 0 0 0 0 0 0 0 0 0 0 1 0"/>
<feBlend mode="normal" in2="effect1_dropShadow_1618_54" result="effect2_dropShadow_1618_54"/>
<feBlend mode="normal" in="SourceGraphic" in2="effect2_dropShadow_1618_54" result="shape"/>
</filter>
<linearGradient id="arrow-right-paint0_linear_1618_54" x1="13" y1="11.0002" x2="13" y2="26.4589" gradientUnits="userSpaceOnUse">
<stop stop-color="white"/>
<stop offset="1" stop-color="white" stop-opacity="0"/>
</linearGradient>
<radialGradient id="arrow-right-paint1_radial_1618_54" cx="0" cy="0" r="1" gradientUnits="userSpaceOnUse" gradientTransform="translate(13 13) rotate(90) scale(7 4)">
<stop stop-color="white"/>
<stop offset="1" stop-color="white" stop-opacity="0"/>
</radialGradient>
</defs>
</svg>
