<svg xmlns="http://www.w3.org/2000/svg" fill="none" viewBox="0 0 157 44"><path fill="#fff" d="M34.82 7.74c.38-.38.53-.83.4-1.22-.11-.4-.5-.67-1.03-.76L33 5.56c-.04 0-.16-.08-.18-.13l-.65-1.3c-.49-.99-1.6-.99-2.09 0l-.65 1.3c-.01.05-.12.13-.17.13l-1.17.2c-.54.09-.9.37-1.04.76-.12.39.02.84.4 1.22l.9.92c.06.04.1.18.08.23l-.26 1.13c-.2.84.13 1.22.33 1.37.21.14.66.34 1.41-.1l1.1-.65c.05-.04.2-.04.26 0l1.09.65c.34.2.62.27.84.27.26 0 .44-.1.55-.17.2-.15.53-.53.33-1.37l-.26-1.13c0-.06.03-.2.08-.23l.91-.92Z"/><path fill="#fff" d="M24.28 3.43c.26-.26.36-.58.28-.85-.09-.28-.35-.48-.73-.53l-.82-.14c-.04 0-.11-.06-.13-.1l-.45-.9c-.35-.7-1.13-.7-1.47 0l-.45.9c-.01.04-.09.1-.12.1l-.82.14c-.38.05-.64.25-.73.53-.09.27.01.59.28.85l.63.64c.04.03.06.13.05.17l-.17.79c-.14.59.08.85.23.95.14.1.46.24.98-.06l.77-.46c.04-.02.15-.02.18 0l.76.46c.24.14.44.18.6.18.17 0 .3-.06.38-.12.15-.1.37-.36.23-.95l-.18-.8c0-.04.02-.13.05-.16l.65-.64Z"/><path fill="#fff" stroke="#fff" stroke-width=".61" d="M19.4 29.94v-.04l-.01-.04a2.2 2.2 0 0 0-.24-.53 9.32 9.32 0 0 0-.25-.42.95.95 0 0 1-.07-.17l.02-.02a7.78 7.78 0 1 0-6.25.02v.03a4.4 4.4 0 0 1-.31.56 2.2 2.2 0 0 0-.25.53l-.01.04v.04l.09 3.9a.77.77 0 0 1-.99.52 13.55 13.55 0 1 1 9.16 0 .77.77 0 0 1-.98-.52l.09-3.9Z"/><path fill="#fff" d="M44.05 28.56v-14.2l3.48-3.48h10.51l3.41 3.42v3.23h-4.1v-1.72l-1.42-1.42H49.7l-1.54 1.54v11.06l1.54 1.54H56l1.48-1.48v-3.3h-4.53v-3.5h8.51v8.3l-3.47 3.48H47.53l-3.48-3.47Z"/><path fill="#fff" d="M64.47 13.84v-1.93l1.39-1.39h2.11l1.4 1.4v1.92l-1.4 1.4h-2.11l-1.4-1.4Zm.45 3.15h3.99v15.04h-3.99V17Z"/><path fill="#fff" d="M74.21 28.95v-8.61H71.5v-3.35h2.78v-4.9h3.93V17h4.6v3.38h-4.6v7.28l1.03 1h3.56v3.38h-5.47l-3.1-3.08Z"/><path fill="#fff" d="M85.36 16.99h3.69v2.5l2.41-2.5h4.3v3.38h-3.48l-2.93 3.02v8.64h-3.99V17Z"/><path fill="#fff" d="M96.65 28.89v-8.76l3.11-3.14h8.64l3.12 3.14v8.76l-3.11 3.14h-8.64l-3.12-3.14Zm9.82-.18 1.06-1.06v-6.28l-1.06-1.06h-4.77l-1.06 1.06v6.28l1.06 1.06h4.77Z"/><path fill="#fff" d="M114.53 28.89v-8.76l3.11-3.14h8.64l3.12 3.14v8.76l-3.12 3.14h-8.64l-3.1-3.14Zm9.82-.18 1.06-1.06v-6.28l-1.06-1.06h-4.77l-1.06 1.06v6.28l1.06 1.06h4.77Z"/><path fill="#fff" d="M132.71 16.99h3.69v2.47l2.45-2.47h3.8l2.06 2.08 2.05-2.08h5.26l3.23 3.26v11.78h-3.99v-10.6l-1.02-1.06h-2.54l-1.6 1.6v10.06h-3.87V21.37l-.97-1h-1.81l-2.75 2.78v8.88h-3.99V17Z"/></svg>
