<svg xmlns="http://www.w3.org/2000/svg" fill="none" viewBox="0 0 136 36"><path fill="#fff" d="M62.2 11.9V8h17.9v3.8h-6.7v17.8H69V12h-6.7Zm22 18.1c-1 0-2-.2-2.8-.5-.8-.4-1.5-1-2-1.6-.4-.7-.6-1.6-.6-2.7 0-1 .1-1.7.5-2.3a4 4 0 0 1 1.3-1.5l2-.8a60.1 60.1 0 0 0 5.9-1c.2-.3.4-.5.4-.9a2 2 0 0 0-.7-1.6c-.4-.3-1-.5-1.8-.5s-1.4.2-2 .5c-.4.3-.7.8-.9 1.3l-4.2-.3A5.6 5.6 0 0 1 83 14a10.6 10.6 0 0 1 6-.3c.9.2 1.6.6 2.3 1a4.8 4.8 0 0 1 2 4.2v11h-4.2v-2.3H89a4.6 4.6 0 0 1-2.7 2.2c-.6.2-1.3.3-2.1.3Zm1.3-3c.6 0 1.2-.2 1.7-.5.6-.2 1-.6 1.2-1 .3-.5.5-1 .5-1.6v-1.7l-.6.3a11 11 0 0 1-1.7.3l-.9.1-1.4.4c-.3.1-.6.4-.9.7-.2.3-.3.6-.3 1 0 .7.2 1.1.7 1.4.4.4 1 .5 1.7.5Zm10.2 2.7V13.5h4.5v16.2h-4.5ZM98 11.4c-.7 0-1.3-.2-1.8-.6a2.2 2.2 0 0 1 0-3.3c.5-.4 1.1-.6 1.8-.6.6 0 1.2.2 1.7.6.5.5.7 1 .7 1.6 0 .7-.2 1.2-.7 1.7-.5.4-1 .6-1.7.6Zm4.7 24.4V13.5h4.4v2.7h.2l.9-1.3c.4-.5.9-.8 1.5-1.1a6.2 6.2 0 0 1 8 3.2c.6 1.2.9 2.8.9 4.6 0 1.8-.3 3.4-.9 4.6A6.1 6.1 0 0 1 112 30c-1 0-1.7-.2-2.3-.5-.5-.2-1-.6-1.5-1l-.9-1.4h-.1v8.7h-4.5Zm4.4-14.2c0 1 .1 1.8.4 2.5.3.8.7 1.3 1.2 1.7a3 3 0 0 0 1.8.6 3 3 0 0 0 1.9-.6c.5-.4.9-1 1.2-1.7.2-.7.4-1.5.4-2.5s-.2-1.7-.4-2.5c-.3-.7-.7-1.2-1.2-1.6a3 3 0 0 0-1.9-.6 3 3 0 0 0-1.8.6c-.5.3-1 .9-1.2 1.6a7 7 0 0 0-.4 2.5Zm15.6 14.2a8.8 8.8 0 0 1-2.9-.5l1-3.3 1.5.2c.4 0 .8 0 1.1-.3.3-.2.6-.5.8-1l.2-.7-5.8-16.7h4.8l3.3 12h.2l3.4-12h4.8l-6.3 18c-.3.8-.7 1.6-1.3 2.2-.5.7-1.2 1.2-2 1.6a7 7 0 0 1-2.8.5Z"/><path fill="#fff" d="M3 1.3A2 2 0 0 1 5 0h43.8a1 1 0 0 1 1 .9l-.1.4L47 8.6a2 2 0 0 1-1.9 1.3H1.4a1 1 0 0 1-1-.8v-.5L3 1.3Zm10 12.4a2 2 0 0 1 1.9-1.3H32a1 1 0 0 1 1 .8v.5L30.4 21a2 2 0 0 1-1.9 1.3H11.4a1 1 0 0 1-1-.9V21l2.6-7.3Zm5.6 12.4a2 2 0 0 1 1.8-1.3h7.2a1 1 0 0 1 1 .8v.5L26 33.3a2 2 0 0 1-2 1.4h-7a1 1 0 0 1-1-.9v-.4l2.6-7.3Z"/></svg>