<svg xmlns="http://www.w3.org/2000/svg" fill="none" viewBox="0 0 110 37"><path fill="#fff" fill-rule="evenodd" d="M34.8 22.7 28 18.5c-1-.7-2.4.1-2.4 1.4v1.7H15.3c.5.7.8 1.6.8 2.5a4 4 0 0 1-1 2.5h10.5v1.7c0 1.3 1.4 2 2.4 1.4l6.8-4.2c.5-.3.7-.9.7-1.4 0-.5-.2-1-.7-1.4Z" clip-rule="evenodd"/><path fill="#fff" fill-rule="evenodd" d="m10.4 22.2-4.7 4.6-1.2-1.2c-.9-1-2.4-.5-2.7.7L0 34.1c0 .6.1 1.1.5 1.5.3.4.9.6 1.5.4l7.7-1.7c1.3-.3 1.7-1.8.8-2.7l-1.2-1.3 4.6-4.6c1-1 1-2.5 0-3.5s-2.6-1-3.5 0Z" clip-rule="evenodd"/><circle cx="12.1" cy="24" r="3.9" stroke="#fff" stroke-width=".1" opacity=".4"/><circle cx="12.1" cy="24" r="2.5" stroke="#fff" stroke-width=".1" opacity=".4"/><path fill="#fff" fill-rule="evenodd" d="M11 .8 6.6 7.5c-.7 1 0 2.4 1.3 2.4h1.8v10.8a4 4 0 0 1 5 .3V10h1.7c1.3 0 2-1.5 1.4-2.5L13.7.8c-.4-.5-.9-.8-1.4-.8-.5 0-1 .3-1.4.8Z" clip-rule="evenodd"/><path fill="#fff" d="M109.3 13.2 101 33h-3.6l2.9-6.6-5.4-13h3.8l3.5 9.3 3.5-9.4h3.6Z"/><path fill="#fff" d="M93.3 10v16.6H90V9.9h3.3Z"/><path fill="#fff" d="M85.2 11.6c-.6 0-1.1-.2-1.5-.5a2 2 0 0 1-.6-1.5c0-.5.2-1 .6-1.4a2 2 0 0 1 1.5-.5c.6 0 1 .1 1.5.5.4.4.6.8.6 1.4a2 2 0 0 1-.6 1.5 2 2 0 0 1-1.5.5Zm1.7 1.6v13.4h-3.4V13.2h3.4Z"/><path fill="#fff" d="m74.8 23.5 3.4-10.3h3.6l-5 13.4h-4l-5-13.4h3.7l3.3 10.3Z"/><path fill="#fff" d="M52.3 19.9c0-1.4.2-2.6.7-3.6a6 6 0 0 1 2.2-2.5c1-.5 2-.8 3.2-.8a5.4 5.4 0 0 1 4.4 2.1v-1.9h3.4v13.4h-3.4v-2c-.4.7-1 1.2-1.8 1.6-.8.4-1.7.6-2.7.6-1 0-2.1-.3-3-.8-1-.6-1.7-1.4-2.3-2.5a8 8 0 0 1-.7-3.6Zm10.5 0c0-.8-.2-1.5-.5-2-.3-.7-.8-1.1-1.3-1.4-.5-.4-1.1-.5-1.8-.5a3.4 3.4 0 0 0-3 1.8 4.5 4.5 0 0 0 0 4.2c.3.6.8 1 1.3 1.4.5.3 1.1.4 1.7.4.7 0 1.3-.1 1.8-.4.5-.3 1-.8 1.3-1.4.3-.6.5-1.3.5-2Z"/><path fill="#fff" d="M48 16v6.5c0 .4 0 .8.2 1 .3.2.6.3 1.2.3h1.5v2.8h-2.1c-2.8 0-4.3-1.4-4.3-4.2V16H43v-2.8h1.6V10H48v3.3h3V16h-3Z"/></svg>
