<svg width="124" height="36" viewBox="0 0 124 36" fill="none" xmlns="http://www.w3.org/2000/svg">
<path d="M36.7721 5.02493C33.9812 5.02493 31.5574 6.42074 29.5499 9.16252C28.032 11.2313 26.8814 13.8734 25.7552 16.4158C23.5763 21.4008 21.9605 24.666 19.5367 24.666C17.113 24.666 15.4972 21.4008 13.2938 16.4406C12.1921 13.8734 11.0415 11.2562 9.49905 9.16252C7.49153 6.42074 5.0678 5.02493 2.27684 5.02493V5H0.342749C0.146893 5 0 5.17448 0 5.34895V10.01C0 10.2094 0.146893 10.3589 0.342749 10.3589H2.27684C4.70056 10.3589 6.31639 13.6241 8.49527 18.6092C9.62144 21.1515 10.7722 23.7936 12.29 25.8624C14.2976 28.6042 16.7213 30 19.5123 30C22.3032 30 24.727 28.6042 26.7344 25.8624C28.2524 23.7936 29.403 21.1515 30.5292 18.6092C32.7081 13.6241 34.3239 10.3589 36.7477 10.3589H38.6572C38.8532 10.3589 39 10.2094 39 10.01V5.37388C39 5.17448 38.8532 5.02493 38.6572 5.02493H36.7721Z" fill="white"/>
<path d="M56.1481 7.54761L60.248 22.5443L64.3237 7.54761H68.1825L62.2015 27.6701H57.9569L52 7.54761H56.1481Z" fill="white"/>
<path d="M75.9938 27.8076C70.3263 27.8076 66.9258 23.5192 66.9258 17.4291C66.9258 11.2884 70.3504 7 75.9938 7C81.6613 7 85.0618 11.2884 85.0618 17.4291C85.0618 23.5446 81.6613 27.8076 75.9938 27.8076ZM75.9938 10.4003C72.7862 10.4003 70.9051 13.1915 70.9051 17.4545C70.9051 21.7175 72.7379 24.4327 75.9938 24.4327C79.2496 24.4327 81.1066 21.6922 81.1066 17.4545C81.1066 13.1915 79.2254 10.4003 75.9938 10.4003Z" fill="white"/>
<path d="M98.2347 20.7427V7.54761H101.997V21.0471C101.997 25.3102 99.0785 28 94.2308 28C89.2385 28 86.5858 25.4625 86.5858 21.0725V7.54761H90.4931V20.7427C90.4931 23.3056 91.7706 24.5744 94.3517 24.5744C96.9564 24.549 98.2347 23.3056 98.2347 20.7427Z" fill="white"/>
<path d="M111.688 27.4769L107.034 11.0846V27.4769H103.344V7.35449H109.422L113.184 21.463L117.115 7.35449H122.999V27.4769H119.092V11.0846L114.437 27.4769H111.688Z" fill="white"/>
</svg>
